<svg viewBox="0 0 189 50" width="189" height="50" xmlns="http://www.w3.org/2000/svg"><path d="M20.328 49.104v-2.442H2.97V2.574H0v46.53h20.328zm19.687.462c3.916 0 7.216-1.023 9.9-3.069 2.684-2.046 4.51-4.741 5.478-8.085v10.692h2.97V13.266h-2.97v10.692c-.968-3.344-2.794-6.039-5.478-8.085-2.684-2.046-5.984-3.069-9.9-3.069-3.344 0-6.303.737-8.877 2.211-2.574 1.474-4.587 3.597-6.04 6.369-1.451 2.772-2.177 6.028-2.177 9.768 0 3.74.726 7.007 2.178 9.801 1.452 2.794 3.465 4.928 6.039 6.402 2.574 1.474 5.533 2.211 8.877 2.211zm.66-2.64c-4.532 0-8.118-1.408-10.758-4.224-2.64-2.816-3.96-6.666-3.96-11.55 0-4.84 1.33-8.668 3.993-11.484 2.662-2.816 6.237-4.224 10.725-4.224 2.816 0 5.346.649 7.59 1.947 2.244 1.298 3.993 3.135 5.247 5.511 1.254 2.376 1.88 5.126 1.88 8.25 0 3.124-.626 5.885-1.88 8.283-1.254 2.398-3.003 4.246-5.247 5.544-2.244 1.298-4.774 1.947-7.59 1.947zm38.959 2.904c3.256 0 6.127-.858 8.613-2.574 2.486-1.716 4.169-4.224 5.049-7.524v9.372h3.036V13.266h-3.036v19.008c0 4.928-1.166 8.657-3.498 11.187-2.332 2.53-5.456 3.795-9.372 3.795-3.74 0-6.688-1.133-8.844-3.399-2.156-2.266-3.234-5.533-3.234-9.801v-20.79h-2.904v20.856c0 5.192 1.32 9.108 3.96 11.748 2.64 2.64 6.05 3.96 10.23 3.96zm27.937-.726v-20.46c0-4.532 1.232-7.81 3.696-9.834 2.464-2.024 5.5-3.036 9.108-3.036h.99V12.54c-3.608 0-6.578.737-8.91 2.211-2.332 1.474-3.96 3.619-4.884 6.435v-7.92h-2.97v35.838h2.97zM127.059 4.95c.748 0 1.364-.231 1.848-.693.484-.462.726-1.067.726-1.815 0-.704-.242-1.287-.726-1.749-.484-.462-1.1-.693-1.848-.693s-1.353.231-1.815.693c-.462.462-.693 1.045-.693 1.749 0 .748.231 1.353.693 1.815.462.462 1.067.693 1.815.693zm1.518 44.154V13.266h-2.97v35.838h2.97zm24.043.462c4.532 0 8.261-1.166 11.187-3.498 2.926-2.332 4.72-5.412 5.38-9.24h-3.103c-.528 3.168-2.024 5.665-4.488 7.491-2.464 1.826-5.5 2.739-9.108 2.739-2.552 0-4.895-.539-7.029-1.617-2.134-1.078-3.872-2.75-5.214-5.016-1.342-2.266-2.035-5.071-2.079-8.415h30.822c.22-1.232.33-2.398.33-3.498 0-2.728-.649-5.291-1.947-7.689-1.298-2.398-3.212-4.334-5.742-5.808-2.53-1.474-5.533-2.211-9.009-2.211-3.388 0-6.39.737-9.009 2.211-2.618 1.474-4.675 3.597-6.17 6.369-1.497 2.772-2.245 6.028-2.245 9.768 0 3.784.748 7.062 2.244 9.834 1.496 2.772 3.553 4.895 6.171 6.369 2.618 1.474 5.621 2.211 9.01 2.211zm13.794-19.338h-28.248c.044-3.3.737-6.072 2.08-8.316 1.341-2.244 3.09-3.916 5.246-5.016 2.156-1.1 4.532-1.65 7.128-1.65 2.508 0 4.84.539 6.996 1.617 2.156 1.078 3.872 2.75 5.148 5.016 1.276 2.266 1.826 5.049 1.65 8.349zm12.493 18.876V.264h-2.97v48.84h2.97zm9.721 0V44.55h-4.686v4.554h4.686z" fill="#fff" fill-rule="nonzero"/></svg>