<svg xmlns="http://www.w3.org/2000/svg" width="42" height="34" viewBox="0 0 42 34"><path d="M33.314 34c2.443 0 4.501-.832 6.175-2.496C41.163 29.84 42 27.794 42 25.365c0-2.608-.837-4.7-2.51-6.274-1.675-1.574-3.733-2.36-6.176-2.36-1.9 0-3.574.584-5.021 1.753-.272-.81-.407-1.754-.407-2.833 0-2.609 1.018-5.172 3.053-7.69 2.036-2.52 4.456-4.363 7.261-5.532L36.979 0c-4.705 2.159-8.211 5.037-10.518 8.635C24.154 12.233 23 16.28 23 20.778c0 3.508.769 6.476 2.307 8.905C27.117 32.56 29.786 34 33.314 34zm-23 0c2.443 0 4.501-.832 6.175-2.496C18.163 29.84 19 27.794 19 25.365c0-2.608-.837-4.7-2.51-6.274-1.675-1.574-3.733-2.36-6.176-2.36-1.9 0-3.574.584-5.021 1.753-.272-.81-.407-1.754-.407-2.833 0-2.609 1.018-5.172 3.053-7.69 2.036-2.52 4.456-4.363 7.261-5.532L13.979 0C9.274 2.159 5.768 5.037 3.46 8.635 1.154 12.233 0 16.28 0 20.778c0 3.508.769 6.476 2.307 8.905C4.117 32.56 6.786 34 10.314 34z"></path></svg>